# xmcd
#
# Track frame offsets:
#	187
#	7329
#	32807
#	46194
#	66742
#	79694
#	97707
#	117802
#	133989
#	152309
#	170612
#
# Disc length: 2567 seconds
#
# Revision: 1
# Processed by: cddbd v1.5PL3 Copyright (c) Steve Scherf et al.
# Submitted via: CDex 1.50Beta5
#
DISCID=8b0a050b
DTITLE=宗次郎 - 大黄河
DYEAR=1986
DGENRE=country
TTITLE0=大黄河
TTITLE1=荘雲海〜星宿海
TTITLE2=冬雪花
TTITLE3=月霞草
TTITLE4=朧伝説
TTITLE5=黄河源
TTITLE6=大黄河
TTITLE7=童戯原
TTITLE8=天清流
TTITLE9=麗泉郷
TTITLE10=陽春麓
EXTD=
EXTT0=
EXTT1=
EXTT2=
EXTT3=
EXTT4=
EXTT5=
EXTT6=
EXTT7=
EXTT8=
EXTT9=
EXTT10=
PLAYORDER=
